<?xml version="1.0" encoding="utf-8"?>
<!-- Generator: Adobe Illustrator 17.1.0, SVG Export Plug-In . SVG Version: 6.00 Build 0)  -->
<!DOCTYPE svg PUBLIC "-//W3C//DTD SVG 1.1//EN" "http://www.w3.org/Graphics/SVG/1.1/DTD/svg11.dtd">
<svg version="1.1" id="Layer_1" xmlns="http://www.w3.org/2000/svg" xmlns:xlink="http://www.w3.org/1999/xlink" x="0px" y="0px"
	 viewBox="0 0 21.4 21.4" enable-background="new 0 0 21.4 21.4" xml:space="preserve">
<g opacity="0.4">
	<g>
		<path d="M20.7,9.3h-1.6c-0.6-3.6-3.4-6.4-7-7V0.7c0-0.4-0.3-0.7-0.7-0.7H10C9.6,0,9.3,0.3,9.3,0.7v1.6c-3.6,0.6-6.4,3.4-7,7H0.7
			C0.3,9.3,0,9.6,0,10v1.4c0,0.4,0.3,0.7,0.7,0.7h1.6c0.6,3.6,3.4,6.4,7,7v1.6c0,0.4,0.3,0.7,0.7,0.7h1.4c0.4,0,0.7-0.3,0.7-0.7
			v-1.6c3.6-0.6,6.4-3.4,7-7h1.6c0.4,0,0.7-0.3,0.7-0.7V10C21.4,9.6,21.1,9.3,20.7,9.3z M10.7,16.6c-3.2,0-5.9-2.6-5.9-5.9
			s2.6-5.9,5.9-5.9c3.2,0,5.9,2.6,5.9,5.9S14,16.6,10.7,16.6z"/>
		<circle cx="10.7" cy="10.7" r="1.4"/>
	</g>
</g>
</svg>
