<?xml version="1.0" encoding="utf-8"?>
<!-- Generator: Adobe Illustrator 17.1.0, SVG Export Plug-In . SVG Version: 6.00 Build 0)  -->
<!DOCTYPE svg PUBLIC "-//W3C//DTD SVG 1.1//EN" "http://www.w3.org/Graphics/SVG/1.1/DTD/svg11.dtd">
<svg version="1.1" xmlns="http://www.w3.org/2000/svg" xmlns:xlink="http://www.w3.org/1999/xlink" x="0px" y="0px"
	 viewBox="0 0 47.3 49" enable-background="new 0 0 47.3 49" xml:space="preserve">
<g id="_x33_0px">
</g>
<g id="_x33_2px">
</g>
<g id="icons_outlines">
	<g opacity="0.4">
		<path d="M23.7,9c-8.3,0-15,6.7-15,15s6.7,15,15,15c8.3,0,15-6.7,15-15S31.9,9,23.7,9z M25.7,35.2V32c0-0.5-0.5-1-1-1h-2
			c-0.5,0-1,0.5-1,1v3.2c-4.5-0.9-8.3-4.7-9.2-9.2h3.2c0.5,0,1-0.5,1-1v-2c0-0.5-0.5-1-1-1h-3.2c0.9-4.5,4.7-8.3,9.2-9.2V15
			c0,0.5,0.5,1,1,1h2c0.5,0,1-0.5,1-1v-2.2c4.5,0.9,8.3,4.7,9.2,9.2h-3.2c-0.5,0-1,0.5-1,1v2c0,0.5,0.5,1,1,1h3.2
			C34,30.5,30.2,34.3,25.7,35.2z"/>
		<circle cx="23.7" cy="24" r="2"/>
	</g>
</g>
</svg>
